{
  "accessors": [
    {
      "bufferView": 2,
      "componentType": 5126,
      "count": 65532,
      "max": [
        0.04060957953333855,
        0.037738122045993805,
        0.10156076401472092
      ],
      "min": [
        -0.05467410758137703,
        -0.03072824515402317,
        -2.806402932264973e-08
      ],
      "type": "VEC3"
    },
    {
      "bufferView": 2,
      "byteOffset": 786384,
      "componentType": 5126,
      "count": 65532,
      "max": [
        0.9999992847442627,
        0.9999998807907104,
        0.9998590350151062
      ],
      "min": [
        -0.9999985694885254,
        -0.9999682307243347,
        -0.9998572468757629
      ],
      "type": "VEC3"
    },
    {
      "bufferView": 1,
      "componentType": 5126,
      "count": 65532,
      "max": [
        0.999716579914093,
        0.9890135526657104
      ],
      "min": [
        0.000244140625,
        0.00024535192642360926
      ],
      "type": "VEC2"
    },
    {
      "bufferView": 1,
      "byteOffset": 524256,
      "componentType": 5126,
      "count": 65532,
      "max": [
        0.999716579914093,
        0.9890135526657104
      ],
      "min": [
        0.000244140625,
        0.00024535192642360926
      ],
      "type": "VEC2"
    },
    {
      "bufferView": 0,
      "componentType": 5125,
      "count": 330735,
      "type": "SCALAR"
    },
    {
      "bufferView": 2,
      "byteOffset": 1572768,
      "componentType": 5126,
      "count": 65533,
      "max": [
        0.06016258895397186,
        0.037738122045993805,
        0.10156765580177307
      ],
      "min": [
        -0.05570749565958977,
        -0.03367616981267929,
        0.00014766526874154806
      ],
      "type": "VEC3"
    },
    {
      "bufferView": 2,
      "byteOffset": 2359164,
      "componentType": 5126,
      "count": 65533,
      "max": [
        0.9999980330467224,
        0.9999678730964661,
        0.9999935030937195
      ],
      "min": [
        -0.9999958872795105,
        -0.9999885559082031,
        -0.9996078014373779
      ],
      "type": "VEC3"
    },
    {
      "bufferView": 1,
      "byteOffset": 1048512,
      "componentType": 5126,
      "count": 65533,
      "max": [
        0.9997065663337708,
        0.9987791776657104
      ],
      "min": [
        0.000244140625,
        0.0002461863914504647
      ],
      "type": "VEC2"
    },
    {
      "bufferView": 1,
      "byteOffset": 1572776,
      "componentType": 5126,
      "count": 65533,
      "max": [
        0.9997065663337708,
        0.9987791776657104
      ],
      "min": [
        0.000244140625,
        0.0002461863914504647
      ],
      "type": "VEC2"
    },
    {
      "bufferView": 0,
      "byteOffset": 1322940,
      "componentType": 5125,
      "count": 309063,
      "type": "SCALAR"
    },
    {
      "bufferView": 2,
      "byteOffset": 3145560,
      "componentType": 5126,
      "count": 30735,
      "max": [
        0.04644230380654335,
        0.03551743924617767,
        0.1016065701842308
      ],
      "min": [
        -0.03812900930643082,
        -0.03366665542125702,
        0.00010558605572441593
      ],
      "type": "VEC3"
    },
    {
      "bufferView": 2,
      "byteOffset": 3514380,
      "componentType": 5126,
      "count": 30735,
      "max": [
        0.9998394846916199,
        0.9999675154685974,
        0.9999987483024597
      ],
      "min": [
        -0.999961256980896,
        -0.9999994039535522,
        -0.999279260635376
      ],
      "type": "VEC3"
    },
    {
      "bufferView": 1,
      "byteOffset": 2097040,
      "componentType": 5126,
      "count": 30735,
      "max": [
        0.9997454881668091,
        0.9792479276657104
      ],
      "min": [
        0.000244140625,
        0.0002576900878921151
      ],
      "type": "VEC2"
    },
    {
      "bufferView": 1,
      "byteOffset": 2342920,
      "componentType": 5126,
      "count": 30735,
      "max": [
        0.9997454881668091,
        0.9792479276657104
      ],
      "min": [
        0.000244140625,
        0.0002576900878921151
      ],
      "type": "VEC2"
    },
    {
      "bufferView": 0,
      "byteOffset": 2559192,
      "componentType": 5125,
      "count": 114180,
      "type": "SCALAR"
    }
  ],
  "asset": {
    "extras": {
      "author": "rookieCookie (https://sketchfab.com/rookieCookie)",
      "license": "CC-BY-4.0 (http://creativecommons.org/licenses/by/4.0/)",
      "source": "https://sketchfab.com/3d-models/scan-2023-04-09t142217652z-b1cb90a0afb4450981a5e5e5b4478e87",
      "title": "Scan 2023-04-09T14:22:17.652Z"
    },
    "generator": "Sketchfab-15.16.0",
    "version": "2.0"
  },
  "bufferViews": [
    {
      "buffer": 0,
      "byteLength": 3015912,
      "name": "floatBufferViews",
      "target": 34963
    },
    {
      "buffer": 0,
      "byteLength": 2588800,
      "byteOffset": 3015912,
      "byteStride": 8,
      "name": "floatBufferViews",
      "target": 34962
    },
    {
      "buffer": 0,
      "byteLength": 3883200,
      "byteOffset": 5604712,
      "byteStride": 12,
      "name": "floatBufferViews",
      "target": 34962
    }
  ],
  "buffers": [
    {
      "byteLength": 9487912,
      "uri": "scene.bin"
    }
  ],
  "extensionsUsed": [
    "KHR_materials_unlit"
  ],
  "images": [
    {
      "uri": "textures/tex_u1_v1_baseColor.jpeg"
    }
  ],
  "materials": [
    {
      "doubleSided": true,
      "extensions": {
        "KHR_materials_unlit": {}
      },
      "name": "tex_u1_v1",
      "pbrMetallicRoughness": {
        "baseColorTexture": {
          "index": 0
        },
        "metallicFactor": 0.0
      }
    }
  ],
  "meshes": [
    {
      "name": "model_tex_u1_v1_0",
      "primitives": [
        {
          "attributes": {
            "NORMAL": 1,
            "POSITION": 0,
            "TEXCOORD_0": 2,
            "TEXCOORD_1": 3
          },
          "indices": 4,
          "material": 0,
          "mode": 4
        }
      ]
    },
    {
      "name": "model_tex_u1_v1_0",
      "primitives": [
        {
          "attributes": {
            "NORMAL": 6,
            "POSITION": 5,
            "TEXCOORD_0": 7,
            "TEXCOORD_1": 8
          },
          "indices": 9,
          "material": 0,
          "mode": 4
        }
      ]
    },
    {
      "name": "model_tex_u1_v1_0",
      "primitives": [
        {
          "attributes": {
            "NORMAL": 11,
            "POSITION": 10,
            "TEXCOORD_0": 12,
            "TEXCOORD_1": 13
          },
          "indices": 14,
          "material": 0,
          "mode": 4
        }
      ]
    }
  ],
  "nodes": [
    {
      "children": [
        1
      ],
      "matrix": [
        1.0,
        0.0,
        0.0,
        0.0,
        0.0,
        2.220446049250313e-16,
        -1.0,
        0.0,
        0.0,
        1.0,
        2.220446049250313e-16,
        0.0,
        0.0,
        0.0,
        0.0,
        1.0
      ],
      "name": "Sketchfab_model"
    },
    {
      "children": [
        2
      ],
      "matrix": [
        1.0,
        0.0,
        0.0,
        0.0,
        0.0,
        0.0,
        1.0,
        0.0,
        0.0,
        -1.0,
        0.0,
        0.0,
        0.0,
        0.0,
        0.0,
        1.0
      ],
      "name": "model.fbx"
    },
    {
      "children": [
        3
      ],
      "name": "RootNode"
    },
    {
      "children": [
        4,
        5,
        6
      ],
      "matrix": [
        1.0,
        0.0,
        0.0,
        0.0,
        0.0,
        2.220446049250313e-16,
        -1.0,
        0.0,
        0.0,
        1.0,
        2.220446049250313e-16,
        0.0,
        0.0,
        0.0,
        0.0,
        1.0
      ],
      "name": "model"
    },
    {
      "mesh": 0,
      "name": "model_tex_u1_v1_0"
    },
    {
      "mesh": 1,
      "name": "model_tex_u1_v1_0"
    },
    {
      "mesh": 2,
      "name": "model_tex_u1_v1_0"
    }
  ],
  "samplers": [
    {
      "magFilter": 9729,
      "minFilter": 9987,
      "wrapS": 10497,
      "wrapT": 10497
    }
  ],
  "scene": 0,
  "scenes": [
    {
      "name": "Sketchfab_Scene",
      "nodes": [
        0
      ]
    }
  ],
  "textures": [
    {
      "sampler": 0,
      "source": 0
    }
  ]
}
