{
  "accessors": [
    {
      "bufferView": 2,
      "componentType": 5126,
      "count": 65532,
      "max": [
        0.04346516728401184,
        0.06503420323133469,
        0.09148158133029938
      ],
      "min": [
        -0.040497004985809326,
        -0.04944264888763428,
        -4.168502343304681e-08
      ],
      "type": "VEC3"
    },
    {
      "bufferView": 2,
      "byteOffset": 786384,
      "componentType": 5126,
      "count": 65532,
      "max": [
        0.9999541640281677,
        0.9999971985816956,
        0.999904215335846
      ],
      "min": [
        -0.9999964833259583,
        -0.9999880194664001,
        -0.9999952912330627
      ],
      "type": "VEC3"
    },
    {
      "bufferView": 1,
      "componentType": 5126,
      "count": 65532,
      "max": [
        0.9996834397315979,
        0.9978026151657104
      ],
      "min": [
        0.000244140625,
        0.0002673460403457284
      ],
      "type": "VEC2"
    },
    {
      "bufferView": 1,
      "byteOffset": 524256,
      "componentType": 5126,
      "count": 65532,
      "max": [
        0.9996834397315979,
        0.9978026151657104
      ],
      "min": [
        0.000244140625,
        0.0002673460403457284
      ],
      "type": "VEC2"
    },
    {
      "bufferView": 0,
      "componentType": 5125,
      "count": 327552,
      "type": "SCALAR"
    },
    {
      "bufferView": 2,
      "byteOffset": 1572768,
      "componentType": 5126,
      "count": 23409,
      "max": [
        0.043176375329494476,
        0.06503420323133469,
        0.09061254560947418
      ],
      "min": [
        -0.039514925330877304,
        -0.04932525008916855,
        0.00013795758422929794
      ],
      "type": "VEC3"
    },
    {
      "bufferView": 2,
      "byteOffset": 1853676,
      "componentType": 5126,
      "count": 23409,
      "max": [
        0.9999399781227112,
        0.9999971985816956,
        0.9999916553497314
      ],
      "min": [
        -0.9999862313270569,
        -0.9999003410339355,
        -0.999434232711792
      ],
      "type": "VEC3"
    },
    {
      "bufferView": 1,
      "byteOffset": 1048512,
      "componentType": 5126,
      "count": 23409,
      "max": [
        0.9996501207351685,
        0.9843958616256714
      ],
      "min": [
        0.000244140625,
        0.00024606718216091394
      ],
      "type": "VEC2"
    },
    {
      "bufferView": 1,
      "byteOffset": 1235784,
      "componentType": 5126,
      "count": 23409,
      "max": [
        0.9996501207351685,
        0.9843958616256714
      ],
      "min": [
        0.000244140625,
        0.00024606718216091394
      ],
      "type": "VEC2"
    },
    {
      "bufferView": 0,
      "byteOffset": 1310208,
      "componentType": 5125,
      "count": 81264,
      "type": "SCALAR"
    }
  ],
  "asset": {
    "extras": {
      "author": "rookieCookie (https://sketchfab.com/rookieCookie)",
      "license": "CC-BY-4.0 (http://creativecommons.org/licenses/by/4.0/)",
      "source": "https://sketchfab.com/3d-models/scan-2023-04-09t141124321z-ea4f2ad977b64f33864b6d5054c930bc",
      "title": "Scan 2023-04-09T14:11:24.321Z"
    },
    "generator": "Sketchfab-15.16.0",
    "version": "2.0"
  },
  "bufferViews": [
    {
      "buffer": 0,
      "byteLength": 1635264,
      "name": "floatBufferViews",
      "target": 34963
    },
    {
      "buffer": 0,
      "byteLength": 1423056,
      "byteOffset": 1635264,
      "byteStride": 8,
      "name": "floatBufferViews",
      "target": 34962
    },
    {
      "buffer": 0,
      "byteLength": 2134584,
      "byteOffset": 3058320,
      "byteStride": 12,
      "name": "floatBufferViews",
      "target": 34962
    }
  ],
  "buffers": [
    {
      "byteLength": 5192904,
      "uri": "scene.bin"
    }
  ],
  "extensionsUsed": [
    "KHR_materials_unlit"
  ],
  "images": [
    {
      "uri": "textures/tex_u1_v1_baseColor.jpeg"
    }
  ],
  "materials": [
    {
      "doubleSided": true,
      "extensions": {
        "KHR_materials_unlit": {}
      },
      "name": "tex_u1_v1",
      "pbrMetallicRoughness": {
        "baseColorTexture": {
          "index": 0
        },
        "metallicFactor": 0.0
      }
    }
  ],
  "meshes": [
    {
      "name": "model_tex_u1_v1_0",
      "primitives": [
        {
          "attributes": {
            "NORMAL": 1,
            "POSITION": 0,
            "TEXCOORD_0": 2,
            "TEXCOORD_1": 3
          },
          "indices": 4,
          "material": 0,
          "mode": 4
        }
      ]
    },
    {
      "name": "model_tex_u1_v1_0",
      "primitives": [
        {
          "attributes": {
            "NORMAL": 6,
            "POSITION": 5,
            "TEXCOORD_0": 7,
            "TEXCOORD_1": 8
          },
          "indices": 9,
          "material": 0,
          "mode": 4
        }
      ]
    }
  ],
  "nodes": [
    {
      "children": [
        1
      ],
      "matrix": [
        1.0,
        0.0,
        0.0,
        0.0,
        0.0,
        2.220446049250313e-16,
        -1.0,
        0.0,
        0.0,
        1.0,
        2.220446049250313e-16,
        0.0,
        0.0,
        0.0,
        0.0,
        1.0
      ],
      "name": "Sketchfab_model"
    },
    {
      "children": [
        2
      ],
      "matrix": [
        1.0,
        0.0,
        0.0,
        0.0,
        0.0,
        0.0,
        1.0,
        0.0,
        0.0,
        -1.0,
        0.0,
        0.0,
        0.0,
        0.0,
        0.0,
        1.0
      ],
      "name": "model.fbx"
    },
    {
      "children": [
        3
      ],
      "name": "RootNode"
    },
    {
      "children": [
        4,
        5
      ],
      "matrix": [
        1.0,
        0.0,
        0.0,
        0.0,
        0.0,
        2.220446049250313e-16,
        -1.0,
        0.0,
        0.0,
        1.0,
        2.220446049250313e-16,
        0.0,
        0.0,
        0.0,
        0.0,
        1.0
      ],
      "name": "model"
    },
    {
      "mesh": 0,
      "name": "model_tex_u1_v1_0"
    },
    {
      "mesh": 1,
      "name": "model_tex_u1_v1_0"
    }
  ],
  "samplers": [
    {
      "magFilter": 9729,
      "minFilter": 9987,
      "wrapS": 10497,
      "wrapT": 10497
    }
  ],
  "scene": 0,
  "scenes": [
    {
      "name": "Sketchfab_Scene",
      "nodes": [
        0
      ]
    }
  ],
  "textures": [
    {
      "sampler": 0,
      "source": 0
    }
  ]
}
