{
    "asset" : {
        "generator" : "Khronos glTF Blender I/O v1.7.33",
        "version" : "2.0"
    },
    "scene" : 0,
    "scenes" : [
        {
            "name" : "Scene",
            "nodes" : [
                1
            ]
        }
    ],
    "nodes" : [
        {
            "mesh" : 0,
            "name" : "Donut"
        },
        {
            "children" : [
                0
            ],
            "mesh" : 1,
            "name" : "Icing",
            "rotation" : [
                0.08367782086133957,
                0,
                0,
                0.996492862701416
            ],
            "translation" : [
                0.03501930832862854,
                -0.0004834418941754848,
                0.002542797476053238
            ]
        }
    ],
    "animations" : [
        {
            "channels" : [
                {
                    "sampler" : 0,
                    "target" : {
                        "node" : 1,
                        "path" : "rotation"
                    }
                }
            ],
            "name" : "IcingAction.001",
            "samplers" : [
                {
                    "input" : 8,
                    "interpolation" : "LINEAR",
                    "output" : 9
                }
            ]
        }
    ],
    "materials" : [
        {
            "doubleSided" : true,
            "name" : "Material.002",
            "pbrMetallicRoughness" : {
                "baseColorTexture" : {
                    "index" : 0
                },
                "metallicFactor" : 0
            }
        },
        {
            "doubleSided" : true,
            "name" : "Material.001",
            "pbrMetallicRoughness" : {
                "baseColorFactor" : [
                    0.04395832121372223,
                    0.45705848932266235,
                    0.03868083655834198,
                    1
                ],
                "metallicFactor" : 0,
                "roughnessFactor" : 0.4363636374473572
            }
        }
    ],
    "meshes" : [
        {
            "name" : "Torus",
            "primitives" : [
                {
                    "attributes" : {
                        "POSITION" : 0,
                        "NORMAL" : 1,
                        "TEXCOORD_0" : 2
                    },
                    "indices" : 3,
                    "material" : 0
                }
            ]
        },
        {
            "name" : "Torus.003",
            "primitives" : [
                {
                    "attributes" : {
                        "POSITION" : 4,
                        "NORMAL" : 5,
                        "TEXCOORD_0" : 6
                    },
                    "indices" : 7,
                    "material" : 1
                }
            ]
        }
    ],
    "textures" : [
        {
            "sampler" : 0,
            "source" : 0
        }
    ],
    "images" : [
        {
            "bufferView" : 4,
            "mimeType" : "image/png",
            "name" : "donut.001"
        }
    ],
    "accessors" : [
        {
            "bufferView" : 0,
            "componentType" : 5126,
            "count" : 3507,
            "max" : [
                0.05049309879541397,
                0.02148115448653698,
                0.05133175849914551
            ],
            "min" : [
                -0.05196334794163704,
                -0.021154578775167465,
                -0.05100008100271225
            ],
            "type" : "VEC3"
        },
        {
            "bufferView" : 1,
            "componentType" : 5126,
            "count" : 3507,
            "type" : "VEC3"
        },
        {
            "bufferView" : 2,
            "componentType" : 5126,
            "count" : 3507,
            "type" : "VEC2"
        },
        {
            "bufferView" : 3,
            "componentType" : 5123,
            "count" : 19200,
            "type" : "SCALAR"
        },
        {
            "bufferView" : 5,
            "componentType" : 5126,
            "count" : 3860,
            "max" : [
                0.052732110023498535,
                0.02340991608798504,
                0.05301985144615173
            ],
            "min" : [
                -0.05253356322646141,
                -0.008058829233050346,
                -0.052699048072099686
            ],
            "type" : "VEC3"
        },
        {
            "bufferView" : 6,
            "componentType" : 5126,
            "count" : 3860,
            "type" : "VEC3"
        },
        {
            "bufferView" : 7,
            "componentType" : 5126,
            "count" : 3860,
            "type" : "VEC2"
        },
        {
            "bufferView" : 8,
            "componentType" : 5123,
            "count" : 19884,
            "type" : "SCALAR"
        },
        {
            "bufferView" : 9,
            "componentType" : 5126,
            "count" : 231,
            "max" : [
                7.7
            ],
            "min" : [
                0.03333333333333333
            ],
            "type" : "SCALAR"
        },
        {
            "bufferView" : 10,
            "componentType" : 5126,
            "count" : 231,
            "type" : "VEC4"
        }
    ],
    "bufferViews" : [
        {
            "buffer" : 0,
            "byteLength" : 42084,
            "byteOffset" : 0
        },
        {
            "buffer" : 0,
            "byteLength" : 42084,
            "byteOffset" : 42084
        },
        {
            "buffer" : 0,
            "byteLength" : 28056,
            "byteOffset" : 84168
        },
        {
            "buffer" : 0,
            "byteLength" : 38400,
            "byteOffset" : 112224
        },
        {
            "buffer" : 0,
            "byteLength" : 19523,
            "byteOffset" : 150624
        },
        {
            "buffer" : 0,
            "byteLength" : 46320,
            "byteOffset" : 170148
        },
        {
            "buffer" : 0,
            "byteLength" : 46320,
            "byteOffset" : 216468
        },
        {
            "buffer" : 0,
            "byteLength" : 30880,
            "byteOffset" : 262788
        },
        {
            "buffer" : 0,
            "byteLength" : 39768,
            "byteOffset" : 293668
        },
        {
            "buffer" : 0,
            "byteLength" : 924,
            "byteOffset" : 333436
        },
        {
            "buffer" : 0,
            "byteLength" : 3696,
            "byteOffset" : 334360
        }
    ],
    "samplers" : [
        {
            "magFilter" : 9729,
            "minFilter" : 9987
        }
    ],
    "buffers" : [
        {
            "byteLength" : 338056,
            "uri" : "data:application/octet-stream;base64,"
        }
    ]
}
